<?xml version="1.0" encoding="UTF-8" standalone="no"?>
<!DOCTYPE svg PUBLIC "-//W3C//DTD SVG 1.1//EN" "http://www.w3.org/Graphics/SVG/1.1/DTD/svg11.dtd">
<svg width="100%" height="100%" viewBox="0 0 12500 12500" version="1.1" xmlns="http://www.w3.org/2000/svg" xmlns:xlink="http://www.w3.org/1999/xlink" xml:space="preserve" xmlns:serif="http://www.serif.com/" style="fill-rule:evenodd;clip-rule:evenodd;stroke-linejoin:round;stroke-miterlimit:2;">
    <g transform="matrix(17.2764,0,0,17.2764,-17.0066,-10.9962)">
        <g>
            <path d="M265.547,223.821C163.627,223.821 163.642,223.819 163.546,223.84C161.626,224.261 161.66,224.664 161.642,226.641C161.408,252.651 161.618,336.502 161.642,346.056C161.652,350.39 163.509,349.419 167.84,349.419C351.09,349.419 351.088,349.424 351.324,349.381C353.361,349.005 353.035,348.124 353.035,334.116C353.035,211.907 353.012,211.892 353.229,211.316C353.727,209.993 354.212,210.205 368.683,210.205C448.09,210.205 448.092,210.169 453.357,210.495C464.991,211.216 467.108,210.898 473.898,212.864C474.234,212.962 492.592,216.398 509.427,233.531C524.399,248.768 527.637,263.351 529.42,268.956C530.989,273.89 532.859,293.349 529.02,305.783C527.503,310.696 527.827,310.79 525.827,315.544C524.445,318.831 521.607,326.603 511.524,338.021C509.77,340.007 502.857,345.976 501.856,346.655C494.169,351.87 489.741,354.815 472.8,359.815C468.43,361.105 466.313,360.879 465.868,362.115C465.447,363.286 466.714,365.152 467.068,365.812C467.227,366.106 488.138,406.141 490.919,411.416C492.423,414.269 504.615,437.396 509.567,447.153C510.677,449.34 510.852,449.221 511.831,451.44C512.354,452.624 527.853,481.864 530.897,488.053C531.205,488.68 533.212,492.76 535.044,495.738C537.927,500.423 533.576,499.485 530.444,499.482C526.01,499.478 523.771,499.842 522.719,498.132C521.766,496.58 519.354,491.596 518.166,489.552C517.771,488.873 513.791,481.133 512.549,478.769C502.631,459.899 483.525,423.074 472.702,402.623C467.586,392.956 467.794,392.877 462.661,383.235C452.148,363.491 452.366,363.101 451.054,362.679C450.19,362.401 450.169,362.444 370.855,362.443C367.705,362.443 366.633,362.271 366.613,365.6C366.548,376.124 366.754,497.065 366.496,498.043C366.148,499.366 364.589,499.467 364.385,499.48C362.111,499.627 356.338,499.5 355.639,499.485C352.359,499.413 353.039,498.076 353.035,494.791C353.031,491.626 353.046,364.664 353.027,364.546C352.588,361.832 350.094,362.441 348.056,362.441C159.713,362.409 159.693,362.549 158.08,362.263C156.571,361.995 152.393,361.539 149.753,356.714C148.497,354.418 148.658,354.274 148.658,324.345C148.658,84.392 148.641,84.41 148.794,83.408C149.445,79.137 153.384,75.059 156.893,74.317C159.408,73.785 159.425,73.845 228.636,73.845C295.709,73.845 295.714,73.839 295.884,73.895C297.644,74.475 297.529,75.202 297.472,83.341C297.452,86.239 296.677,86.315 293.773,86.316C232.571,86.329 163.892,86.276 163.455,86.357C161.303,86.76 161.642,87.658 161.642,101.788C161.642,209.078 161.637,209.08 161.677,209.215C162.228,211.103 162.621,211.016 164.59,211.03C178.518,211.129 268.8,210.805 269.987,211.222C271.501,211.754 271.181,214.427 271.178,219.038C271.178,219.369 271.176,222.581 270.707,223.152C269.966,224.054 266.667,223.818 265.547,223.821ZM519.102,287.442C518.817,283.253 518.638,260.148 500.893,242.07C481.704,222.521 460.209,223.473 453.364,223.473C367.326,223.473 367.29,223.443 366.7,223.743C365.491,224.356 365.744,226.369 365.744,233.151C365.744,348.06 365.741,348.061 365.774,348.18C366.155,349.586 366.212,349.757 367.642,349.983C369.352,350.253 453.498,350.022 460.963,350.001C462.31,349.997 469.156,349.979 477.408,346.429C488.368,341.715 493.664,337.219 497.016,334.394C498.63,333.034 507.352,325.685 513.185,313.548C519.232,300.967 519.094,287.577 519.102,287.442Z"/>
            <path d="M318.744,72.968C321.166,73.052 321.166,73.044 427.308,73.044C557.274,73.044 557.31,73.002 558.722,73.383C568.326,75.976 569.278,83.629 569.647,86.576C569.806,87.838 569.789,87.846 569.789,505.647C569.789,508.099 571.501,523.031 559.794,524.411C558.151,524.604 159.871,524.517 159.125,524.456C151.655,523.849 149.175,516.992 148.828,515.314C148.667,514.537 148.685,514.536 148.685,425.31C148.685,402.139 148.595,401.977 149.259,401.304C149.828,400.727 150.001,400.648 160.237,400.694C160.708,400.696 163.037,400.345 163.358,402.533C163.442,403.104 163.356,506.896 163.405,507.826C163.492,509.521 164.25,510.001 165.654,510.136C166.073,510.176 519.239,510.152 549.986,510.149C551.972,510.149 554.567,510.807 554.937,507.792C554.982,507.429 554.879,126.278 554.87,93.103C554.869,89.529 555.729,88.007 552.15,87.932C552.032,87.93 331.828,87.931 331.776,87.932C329.813,87.954 329.399,87.941 329.044,89.887C329.018,90.033 329.046,221.817 329.029,222.317C328.931,225.102 328.049,224.934 325.257,224.933C314.068,224.931 312.979,225.052 312.308,224.386C311.64,223.723 311.746,220.467 311.757,220.123L311.757,110.473C311.757,74.27 311.689,74.122 312.246,73.577C313.08,72.761 316.2,72.97 318.744,72.968Z" style="fill:rgb(0,71,4);"/>
        </g>
        <g>
            <path d="M89.705,599.599C95.692,600.503 108.124,603.336 105.72,621.778C105.006,627.256 100.722,632.394 94.106,634.068C89.368,635.266 89.367,635.467 80.988,635.469C63.797,635.473 63.501,635.602 62.863,634.621C62.488,634.044 62.487,633.981 62.496,604.441C62.497,602.847 61.849,599.516 64.731,599.415C65.01,599.405 85.514,599.399 86.405,599.42C88.188,599.461 88.166,599.515 89.705,599.599ZM96.757,620.613C96.788,620.356 98.099,614.476 95.48,610.71C92.235,606.046 89.631,606.361 74.473,606.42C70.424,606.436 71.04,608.009 71.04,612.04C71.04,626.499 70.982,626.548 71.345,627.17C71.911,628.138 72.148,628.359 85.326,628.124C95.484,627.943 96.728,620.685 96.757,620.613Z"/>
            <path d="M128.156,629.411C128.271,634.662 128.569,636.081 125.506,636.132C121.366,636.202 119.774,636.443 119.546,633.812C119.358,631.645 119.455,605.795 119.464,603.359C119.477,599.812 120.858,600.354 124.414,600.353C153.965,600.346 154.139,600.235 155.804,601.34C159.219,603.609 158.431,605.662 158.674,615.293C158.93,625.427 149.335,622.084 148.356,622.976C147.226,624.005 149.001,625.177 149.164,625.285C153.522,628.164 153.135,628.634 157.722,632.024C157.819,632.095 157.789,632.087 158.907,632.958C160.166,633.938 161.191,634.506 161.259,634.866C161.537,636.337 159.407,636.289 159.208,636.284C150.246,636.081 150.192,636.05 149.516,635.668C148.613,635.157 139.966,627.138 139.832,627.009C136.197,623.514 136.209,622.812 130.929,622.972C127.983,623.061 128.272,624.174 128.156,629.411ZM128.158,612.039C128.435,615.191 127.758,616.464 130.923,616.541C132.226,616.572 144.428,616.867 147.216,616.405C149.439,616.036 150.704,615.272 150.521,610.953C150.312,606.054 148.108,606.788 137.442,606.788C131.586,606.788 129.093,606.574 128.591,607.579C128.431,607.899 128.283,608.197 128.158,612.039Z"/>
            <path d="M630.956,617.415C630.557,618.886 630.502,622.357 624.888,622.825C624.181,622.884 620.984,622.652 620.632,622.995C619.576,624.024 621.316,625.13 621.477,625.233C624.039,626.861 623.878,627.061 629.348,631.441C631.045,632.8 633.549,634.448 633.626,634.82C633.654,634.958 633.873,636.02 632.648,636.281C632.041,636.41 632.038,636.197 624.894,636.132C621.21,636.098 621.14,634.904 617.904,632.11C613.797,628.564 613.934,628.445 609.909,624.826C607.89,623.011 607.024,622.885 603.185,622.97C599.973,623.041 600.607,624.707 600.595,632.665C600.59,635.404 600.481,636.096 597.758,636.132C594.77,636.172 592.189,636.624 592.029,633.78C592.004,633.339 592.017,606.787 592.018,604.44C592.019,602.638 591.638,600.437 594.511,600.357C594.64,600.354 621.678,600.345 622.72,600.359C624.537,600.382 629.431,600.225 630.64,604.336C630.935,605.34 631.334,606.698 630.956,617.415ZM600.595,612.04C600.766,615.153 600.044,616.415 603.175,616.545C605.011,616.621 615.167,616.554 616.21,616.548C619.858,616.524 623.311,616.998 623.031,610.945C622.804,606.055 620.308,606.788 609.696,606.788C602.717,606.788 600.959,606.308 600.619,608.722L600.595,612.04Z"/>
            <path d="M352.905,620.725L352.905,625.068C352.905,625.388 353.647,633.501 349.356,635.296C347.052,636.26 346.958,636.136 322.001,636.131C313.722,636.129 310.475,636.163 310.385,627.234C310.169,605.668 310.359,605.109 310.975,603.295C311.631,601.363 313.974,599.943 315.412,599.71C315.715,599.661 315.704,599.358 341.542,599.408C347.002,599.419 351.334,599.079 352.674,605.462C353.594,609.843 351.359,609.054 347.013,610.052C343.278,610.909 344.642,607.891 343.475,606.875C342.803,606.289 342.68,606.347 324.172,606.352C322.389,606.353 319.115,605.677 319.014,608.799C318.864,613.44 318.987,624.76 319.003,626.148C319.021,627.86 319.139,628.86 322.006,628.955C322.025,628.956 341.454,628.956 341.529,628.955C344.521,628.912 344.23,626.617 344.125,623.952C344,620.763 341.081,621.447 339.371,621.445C337.924,621.445 336.476,621.444 335.029,621.444C332.144,621.44 330.22,622.171 330.414,617.455C330.544,614.294 331.951,614.852 340.457,614.852C351.486,614.852 352.376,614.564 352.815,616.246C352.9,616.571 352.904,620.367 352.905,620.725Z"/>
            <path d="M462.555,604.441L462.555,629.411C462.554,631.901 463.205,634.793 461.126,635.376C457.808,636.307 455.52,634.548 455.133,634.251C451.092,631.144 451.296,630.915 447.236,627.848C446.076,626.972 440.824,622.367 440.273,621.884C436.209,618.32 433.696,616.382 433.105,615.926C431.782,614.905 430.648,613.145 429.484,613.163C428.613,613.176 428.591,613.385 428.565,614.25C428.519,615.723 428.957,615.696 428.7,632.676C428.663,635.073 428.033,635.788 422.992,635.52C420.204,635.373 420.688,633.685 420.688,625.068C420.688,600.925 420.638,600.861 421.019,600.227C421.507,599.414 422.815,599.342 422.988,599.333C428.145,599.049 428.087,601.204 432.754,604.419C432.914,604.529 440.667,611.123 444.582,614.332C448.124,617.235 448.119,617.21 451.61,620.195C452.198,620.698 452.711,621.323 453.404,621.668C454.791,622.36 454.825,619.887 454.827,619.693C454.846,618.299 454.644,618.305 454.757,602.273C454.782,598.639 456.24,599.28 459.871,599.329C463.422,599.378 462.554,600.907 462.555,604.441Z"/>
            <path d="M259.539,618.554C259.539,626.316 259.522,626.302 259.614,631.581C259.618,631.849 259.661,634.26 259.1,634.895C258.68,635.369 252.122,636.771 251.747,633.71C251.693,633.269 251.708,601.506 251.738,601.219C252.054,598.232 257.018,599.149 258.793,600.427C259.187,600.711 259.073,600.843 263.481,604.301C266.855,606.947 272.725,611.999 273.518,612.681C277.337,615.968 281.203,619.036 281.883,619.575C282.989,620.454 283.914,621.528 284.879,621.356C285.789,621.194 285.355,620.694 285.488,602.273C285.514,598.698 286.922,599.29 290.512,599.326C292.986,599.35 293.252,599.813 293.334,602.274C293.335,602.3 293.334,631.531 293.334,631.581C293.317,633.939 293.897,635.658 289.442,635.521C286.556,635.433 285.256,633.76 272.866,623.233C266.326,617.677 266.293,617.733 265.726,617.251C265.137,616.75 265.149,616.78 264.549,616.277C263.371,615.292 263.313,615.393 262.236,614.277C261.359,613.369 261.407,613.091 260.153,613.194C259.288,613.265 259.639,613.617 259.633,613.916C259.609,615.149 259.528,615.132 259.6,616.368C259.611,616.543 259.596,616.53 259.539,618.554Z"/>
            <path d="M697.325,605.714C711.726,630.813 713.619,633.771 713.551,634.752C713.491,635.615 711.884,635.589 711.723,635.586C705.192,635.479 704.587,635.812 702.867,632.783C700.992,629.48 701.026,627.822 697.627,627.688C697.479,627.682 681.542,627.684 681.351,627.685C677.335,627.718 677.764,629.075 675.631,632.5C674.181,634.828 674.31,635.398 671.57,635.523C666.235,635.767 666.133,635.334 666.032,634.9C665.677,633.393 667.499,631.468 672.002,623.112C672.517,622.156 672.623,622.231 678.586,611.245C678.755,610.933 678.819,610.975 680.857,607.426C684.507,601.071 684.492,599.428 687.87,599.331C692.485,599.199 693.766,599.173 695.427,602.29C696.669,604.617 696.701,604.575 697.325,605.714ZM692.395,613.013C691.069,610.934 690.555,609.37 690.161,608.653C689.814,608.023 689.703,608.095 688.998,608.126C688.301,608.156 688.262,608.2 687.981,608.866C686.672,611.971 684.873,615.305 683.675,617.544C681.769,621.106 684.937,620.701 685.692,620.692C691.64,620.618 694.653,620.874 695.213,620.398C696.204,619.553 695.072,618.315 692.395,613.013Z"/>
            <path d="M537.354,626.388C537.809,625.631 537.801,625.639 541.941,618.308C542.667,617.022 550.465,603.215 550.989,602.221C552.38,599.582 552.712,599.114 558.66,599.336C558.904,599.345 560.695,599.412 561.518,600.424C561.661,600.6 579.434,631.78 580.119,632.817C580.236,632.995 581.475,634.872 580.191,635.476C579.586,635.76 579.558,635.57 577.126,635.531C574.294,635.485 571.867,636.017 570.649,633.732C567.672,628.143 567.44,627.704 564.098,627.684C546.965,627.585 546.895,627.551 545.575,628.225C544.429,628.809 542.696,633.553 541.248,634.778C540.853,635.113 540.17,635.691 534.823,635.568C534.707,635.565 533.659,635.541 533.485,635.011C532.939,633.349 533.603,633.375 537.354,626.388ZM558.968,611.864C557.188,608.467 557.429,608.318 557.161,608.121C557.144,608.109 555.713,608.056 555.691,608.066C555.528,608.148 552.009,615.508 551.698,616.159C551.096,617.418 548.222,620.698 552.158,620.712C552.853,620.715 560.101,620.741 560.841,620.715C562.117,620.67 562.451,620.86 562.76,619.609C562.914,618.985 559.424,612.749 558.968,611.864Z"/>
            <path d="M39.734,628.905C42.454,628.905 42.431,628.911 45.156,628.829C48.041,628.742 47.807,629.776 47.898,632.665C47.906,632.915 47.974,635.051 47.151,635.7C46.523,636.195 46.418,636.133 19.107,636.132C14.01,636.132 11.623,636.407 11.082,635.087C10.719,634.203 10.774,634.162 10.774,605.526C10.774,603.95 10.571,601.716 11.286,600.985C12.005,600.25 12.174,600.353 31.049,600.353C46.269,600.353 46.516,600.201 47.334,601.183C47.58,601.479 48.456,606.238 46.353,606.894C45.352,607.207 21.817,606.941 21.329,607.06C19.425,607.524 19.494,607.933 19.484,609.876C19.482,610.155 19.468,612.838 19.902,613.338C20.807,614.38 21.084,614.169 31.049,614.175C31.376,614.175 34.534,614.177 35.118,614.592C35.994,615.215 36.756,620.06 34.264,620.526C32.73,620.814 21.534,620.192 20.344,620.972C19.537,621.502 19.495,622.75 19.489,622.921C19.346,627.127 19.504,628.472 21.178,628.791C21.971,628.942 33.331,628.684 39.734,628.905Z"/>
            <path d="M397.996,628.905C400.712,628.905 400.69,628.911 403.418,628.829C406.304,628.741 406.061,629.781 406.152,632.665C406.16,632.915 406.227,635.05 405.411,635.699C404.787,636.195 404.681,636.133 377.369,636.132C372.257,636.132 369.876,636.404 369.335,635.097C368.965,634.202 369.02,634.16 369.02,605.526C369.02,603.976 368.813,601.721 369.542,600.976C370.246,600.256 370.413,600.353 391.482,600.353C404.28,600.353 404.742,600.187 405.575,601.196C405.838,601.514 406.673,606.225 404.615,606.885C403.583,607.216 380.097,606.94 379.587,607.057C377.671,607.496 377.706,607.896 377.696,609.875C377.694,610.157 377.68,612.837 378.144,613.366C379.036,614.383 379.44,614.167 389.311,614.175C389.636,614.175 392.762,614.178 393.351,614.616C394.175,615.23 394.918,620.032 392.52,620.515C391.012,620.818 379.777,620.206 378.587,620.953C377.757,621.475 377.709,622.747 377.703,622.919C377.535,627.354 377.799,628.507 379.446,628.796C380.253,628.937 391.644,628.685 397.996,628.905Z"/>
            <path d="M230.807,628.905C235.678,628.792 237.396,628.565 237.775,630.395C237.811,630.567 237.87,632.483 237.875,632.664C237.883,632.914 237.948,635.046 237.134,635.697C236.429,636.26 236.301,636.115 204.751,636.134C202.596,636.135 201.912,636.282 201.057,635.1C200.709,634.618 200.736,634.55 200.74,605.527C200.74,603.993 200.534,601.727 201.268,600.975C201.969,600.256 202.136,600.353 223.207,600.353C235.728,600.353 236.592,600.176 237.292,601.202C237.579,601.623 238.346,606.226 236.341,606.88C235.305,607.219 212.09,606.94 211.311,607.058C209.886,607.273 209.819,607.431 209.42,608.829C209.38,608.97 209.339,612.35 209.544,612.967C209.936,614.144 212.107,614.17 212.352,614.173C220.761,614.275 224.879,613.658 225.519,615.224C225.52,615.226 226.723,619.988 224.241,620.508C222.741,620.822 211.503,620.212 210.304,620.945C209.457,621.463 209.405,622.744 209.398,622.918C209.213,627.51 209.554,628.53 211.175,628.799C212.26,628.979 219.485,628.644 230.807,628.905Z"/>
            <path d="M488.604,630.496C488.725,633.985 489.426,635.379 485.925,635.529C481.361,635.725 480.812,635.149 480.511,634.833C479.986,634.282 480.064,634.147 480.059,603.355C480.058,600.409 479.749,599.379 482.688,599.327C484.593,599.292 487.467,599.176 488.231,600C489.227,601.074 487.785,611.616 489.337,612.946C490.048,613.556 490.178,613.453 507.645,613.457C510.934,613.458 513.427,614.046 513.58,611.001C513.703,608.534 513.253,600.866 514.036,600.003C514.893,599.061 515.047,599.336 516.336,599.324C520.547,599.282 522.192,598.87 522.229,602.26C522.229,602.307 522.231,632.598 522.229,632.682C522.155,635.873 520.611,635.584 516.339,635.529C512.841,635.484 513.663,633.998 513.663,630.496C513.662,622.542 514.263,620.692 510.907,620.6C510.478,620.588 491.611,620.59 491.357,620.6C487.929,620.738 488.879,622.341 488.604,630.496Z"/>
            <path d="M646.944,610.955C646.944,605.985 646.94,602.506 646.958,602.304C647.152,600.125 649.019,600.361 649.868,600.352C652.614,600.325 655.256,599.939 655.601,602.224C655.639,602.476 655.616,633.715 655.613,633.78C655.478,636.659 653.002,636.166 649.861,636.127C648.087,636.106 647.713,636.364 647.036,634.727C646.929,634.468 646.944,634.469 646.944,610.955Z"/>
        </g>
    </g>
</svg>
